PathFileType	4	(X/Y/Z)	C:/Users/beibeiliu/ov580/test_trc/User1\sequence.15_training_dense_left.trc
DataRate	CameraRate	NumFrames	NumMarkers	Units	OrigDataRate	OrigDataStartFrame	OrigNumFrames
120	120	18	19	mm	120	171	273
Frame#	Time	ThumbCMC			ThumbMCP			ThumbIP			ThumbTip			IndexMCP			IndexPIP			IndexTip			MiddleMCP			MiddlePIP			MiddleTip			RingMCP			RingPIP			RingTip			PinkyMCP			PinkyPIP			PinkyTip			BackHand1			BackHand2			BackHand3	
		X0	Y0	Z0	X1	Y1	Z1	X2	Y2	Z2	X3	Y3	Z3	X4	Y4	Z4	X5	Y5	Z5	X6	Y6	Z6	X7	Y7	Z7	X8	Y8	Z8	X9	Y9	Z9	X10	Y10	Z10	X11	Y11	Z11	X12	Y12	Z12	X13	Y13	Z13	X14	Y14	Z14	X15	Y15	Z15	X16	Y16	Z16	X17	Y17	Z17	X18	Y18	Z18	
170	1.41667	-158.089	110.599	48.8716	-129.082	98.1787	33.1005	-114.793	94.0336	11.7744	-101.409	83.8264	-12.7316	-158.85	136.288	-34.456	-155.701	137.398	-57.8013	-153.826	135.195	-84.9054	-162.738	101.154	-47.073	-139.588	74.8523	-37.2169	-153.461	71.5571	-2.0195	-178.04	83.1745	-48.0995	-157.745	60.0765	-33.9131	-164.398	61.7719	-4.1928	-211.471	83.1612	-41.1789	-204.136	80.2733	-59.1689	-196.682	79.0807	-86.6863	-217.597	106.277	2.97181	-230.351	104.445	34.6486	-196.428	125.879	30.98	
171	1.425	-156.839	106.841	49.872	-133.843	92.1827	26.0152	-121.993	88.4379	-0.766408	-114.409	78.647	-20.4536	-156.92	140.941	-32.3039	-156.962	141.845	-55.8318	-155.653	143.624	-83.608	-164.649	107.885	-46.3383	-146.79	79.8812	-43.3594	-155.147	75.4895	-2.31112	-181.211	94.1728	-46.4917	-165.054	66.4	-41.3594	-170.278	66.201	-4.07677	-214.649	93.3084	-39.2873	-209.732	91.8412	-61.6222	-204.238	93.5284	-83.0439	-216.199	114.355	1.6927	-228.472	110.049	39.7649	-189.692	127.891	35.3739	
172	1.43333	-156.772	103.442	47.4723	-131.982	88.2971	22.0766	-126.559	86.6865	-7.76855	-122.542	74.6323	-32.7156	-156.927	142.897	-26.5153	-157.366	147.392	-53.8265	-154.178	150.157	-78.8843	-168.846	112.44	-44.666	-150.153	82.1377	-43.9075	-160.163	78.1933	-3.19671	-181.806	98.6758	-48.8215	-168.548	69.4118	-40.4228	-176.35	67.9	-8.83522	-218.963	99.9355	-40.5317	-213.544	100.251	-63.0008	-211.881	105.51	-87.837	-212.429	121.364	5.66968	-227.354	113.994	37.8957	-192.693	127.903	35.427	
173	1.44167	-159.664	101.272	42.9178	-139.695	86.2366	13.6172	-130.267	82.2142	-15.8028	-137.571	73.7424	-39.1061	-159.377	142.26	-27.9679	-156.888	149.84	-58.0974	-160.26	149.629	-81.7044	-170.018	113.536	-45.6789	-155.477	80.0269	-43.8366	-163.169	79.0864	-4.17661	-187.393	102.827	-46.4745	-176.939	70.2772	-44.9842	-176.038	69.6209	-9.26451	-219.263	107.028	-41.6433	-215.607	106.086	-62.3161	-216.51	112.376	-85.7854	-213.409	124.971	9.50784	-224.008	116.001	37.3559	-186.204	130.966	34.726	
174	1.45	-159.318	96.5871	39.469	-143.271	81.7924	9.24428	-135.733	75.9296	-20.7245	-150.232	70.7198	-42.5799	-156.143	140.287	-28.2004	-159.604	145.014	-59.0936	-159.769	148.004	-86.2098	-171.89	111.46	-47.8614	-162.617	76.6343	-44.8632	-170.083	75.0817	-9.55928	-193.315	99.6157	-50.401	-177.83	70.1527	-44.1658	-182.382	67.2506	-11.6223	-223.303	107.814	-41.6996	-219.027	108.738	-60.1176	-220.368	114.63	-83.8645	-216.467	125.574	5.86389	-225.613	117.174	38.93	-186.283	127.756	34.8756	
175	1.45833	-159.981	90.9601	39.5719	-142.507	72.4996	5.774	-144.075	67.7979	-22.7087	-155.966	58.5729	-48.4934	-159.482	133.4	-34.4696	-155.665	139.432	-58.4927	-157.753	142.434	-87.1162	-175.311	106.289	-51.6711	-169.566	72.8018	-50.6285	-173.048	74.4643	-8.16113	-195.585	97.1805	-50.4022	-183.407	65.9463	-44.8362	-185.203	62.3828	-14.3108	-227.234	108.027	-42.9785	-224.801	107.41	-60.1072	-225.403	116.136	-83.146	-214.042	122.632	9.81016	-221.03	117.46	39.2157	-184.24	124.52	33.6147	
176	1.46667	-157.911	85.2388	33.0764	-145.883	63.3749	3.40633	-147.81	57.0826	-24.2046	-163.132	50.4653	-48.6203	-158.22	124.688	-38.18	-158.934	128.948	-67.3361	-159.604	131.853	-89.7232	-177.984	98.4887	-53.2036	-172.707	65.833	-50.7423	-173.867	68.6481	-7.84618	-200.008	91.1426	-50.3495	-194.17	58.5638	-45.5702	-189.749	58.9123	-9.26346	-224.941	107.049	-42.0368	-230.641	104.726	-63.05	-231.545	112.64	-83.1957	-213.534	121.713	7.07884	-219.978	117.488	38.5124	-179.474	121.97	28.5737	
177	1.475	-154.663	76.8268	35.1749	-147.517	53.5079	3.23977	-151.236	47.6654	-22.4544	-170.52	44.323	-48.282	-152.894	115.188	-43.6654	-155.952	117.284	-67.7458	-156.476	119.799	-95.4381	-179.248	91.2606	-51.2284	-178.969	54.2497	-46.283	-179.442	60.8802	-9.38926	-198.317	84.2662	-50.5162	-198.595	52.3925	-44.174	-193.802	52.4358	-7.29122	-229.742	102.545	-37.1112	-232.639	100.869	-58.2317	-235.379	108.163	-82.7579	-209.523	119.563	3.48844	-218.73	114.611	40.8518	-178.443	116.213	29.3801	
178	1.48333	-153.99	69.1322	35.2	-152.051	48.8891	4.43634	-152.921	37.8916	-25.2441	-172.399	32.8098	-46.5874	-151.052	102.458	-41.7039	-155.652	105.706	-68.6367	-154.743	107.857	-97.6868	-176.144	79.1168	-53.8299	-180.213	45.8431	-44.0457	-179.46	53.7736	-6.96304	-199.819	79.4714	-48.7944	-204.275	44.7717	-39.9415	-195.698	45.4216	-7.16393	-229.205	99.0593	-39.7893	-229.459	96.4492	-55.1368	-232.417	103.474	-79.9243	-207.442	114.883	4.3966	-208.813	114.471	38.958	-171.614	109.988	28.8443	
179	1.49167	-154.214	62.6375	38.0181	-150.605	38.7373	9.88461	-157.3	32.2259	-21.5523	-174.144	27.4811	-40.5093	-150.269	94.1798	-46.4813	-149.174	94.4482	-66.78	-157.941	96.3958	-93.172	-175.873	74.5126	-50.6604	-182.796	40.8685	-46.2316	-183.161	47.0189	-6.51876	-204.368	74.9358	-46.5881	-203.61	41.8001	-40.9566	-198.676	41.0916	-5.26627	-227.633	95.4104	-39	-228.933	93.1103	-56.9857	-233.274	98.525	-77.6086	-203.172	111.063	7.5705	-204.816	109.468	42.272	-170.063	103.919	30.0887	
180	1.5	-153.092	59.7737	36.9393	-149.583	33.8369	10.7614	-155.419	25.8721	-23.7979	-177.524	25.3626	-42.5604	-150.981	88.6445	-41.603	-151.458	88.1591	-70.5675	-151.724	88.0989	-95.5181	-174.61	66.4128	-51.6642	-182.186	34.0098	-41.7189	-180.794	43.473	-3.60937	-202.44	67.8527	-48.8764	-201.458	37.8316	-41.3672	-198.696	37.4624	-4.44032	-221.287	92.2012	-38.6787	-226.637	90.3928	-54.5102	-231.068	95.5642	-75.8357	-194.832	107.94	6.08134	-202.345	111.363	38.1902	-169.597	99.2951	28.5357	
181	1.50833	-152.911	57.9911	35.997	-147.428	30.2802	6.43941	-153.413	22.522	-19.8754	-174.793	21.4552	-43.2035	-145.337	85.84	-45.7469	-148.045	84.5266	-67.1482	-147.935	83.5256	-98.0662	-174.727	66.3926	-50.5248	-179.752	33.5177	-44.4778	-180.408	43.544	-2.18444	-200.894	70.1306	-45.3645	-201.591	34.1068	-36.378	-197.639	35.7467	-5.8905	-223.255	91.5078	-33.9521	-222.995	88.3324	-56.4529	-229.958	94.7024	-77.3454	-192.895	106.342	6.79814	-201.311	107.369	42.2388	-166.009	98.7138	24.7908	
182	1.51667	-152.671	56.8752	39.3427	-147.42	30.2978	7.29188	-153.287	22.5857	-22.3986	-171.798	19.7612	-42.5247	-143.182	85.8391	-41.7469	-144.229	85.2457	-66.6609	-147.165	85.0301	-96.9146	-171.453	66.3672	-50.6564	-181.194	32.3958	-39.8862	-180.055	41.6651	-5.1724	-193.642	66.4255	-47.3014	-199.64	35.6473	-37.0263	-197.052	39.6321	-1.73546	-219.119	92.1044	-37.3504	-226.081	90.3668	-51.8827	-228.807	94.4667	-77.6487	-193.696	105.865	7.37938	-197.603	107.463	43.3516	-163.294	97.0939	28.4775	
183	1.525	-151.535	60.1722	37.2438	-146.264	32.369	6.93367	-151.209	25.8275	-21.7351	-172.438	28.0387	-42.2039	-144.014	90.3695	-43.4035	-140.093	89.4092	-71.5606	-143.404	89.2735	-94.2961	-172.317	72.8775	-49.7833	-179.564	35.9406	-41.3792	-176.783	46.8924	-4.10654	-194.42	72.4208	-46.8107	-200.874	39.0673	-38.0314	-194.872	40.8522	-6.29027	-218.456	95.7331	-34.925	-220.274	92.6161	-55.1448	-223.246	100.969	-74.5403	-189.809	107.419	10.4375	-199.379	110.832	42.5533	-163.204	99.6528	30.7668	
184	1.53333	-148.312	62.4174	34.4635	-145.356	36.2939	5.97039	-151.877	32.0845	-22.3834	-167.878	29.5034	-42.7892	-142.941	94.7242	-41.2428	-141.228	94.4174	-66.1781	-146.208	96.3697	-92.5741	-172.058	73.8588	-52.5751	-174.906	41.7848	-47.0471	-174.801	47.7234	-6.97548	-195.131	75.2574	-49.7104	-196.69	44.1825	-41.6061	-194.402	45.2775	-5.7917	-216.954	99.3889	-37.3348	-218.793	98.4885	-55.4848	-225.507	105.277	-74.3744	-191.275	111.74	8.85177	-197.935	109.359	43.4684	-161.666	102.763	28.4446	
185	1.54167	-149.376	64.7872	34.6174	-145.71	42.1572	3.00952	-150.1	37.9676	-27.0434	-169.734	39.0744	-46.4337	-141.538	101.435	-43.5572	-141.898	102.53	-66.3122	-145.74	104.175	-92.5352	-166.409	81.9491	-52.9779	-176.406	49.9141	-48.8362	-175.916	53.7262	-10.2574	-192.401	84.9903	-47.3767	-193.997	51.2021	-46.8843	-192.314	49.5543	-11.0687	-213.286	104.789	-33.5757	-221.262	104.785	-56.2722	-222.216	111.761	-74.7263	-190.493	115.767	9.45274	-195.697	112.574	40.9959	-160.716	105.681	28.756	
186	1.55	-147.503	66.9558	34.2679	-146.075	45.4804	0.613447	-149.515	39.5782	-28.4275	-168.295	41.4794	-49.0354	-141.78	106.068	-39.5342	-140.271	110.564	-70.3934	-143.637	112.354	-91.6346	-169.544	92.1573	-51.146	-175.064	55.2551	-50.325	-176.322	58.3162	-12.0768	-190.186	88.8829	-51.2903	-197.137	56.93	-46.8012	-195.403	56.2086	-11.1831	-217.976	111.541	-37.8156	-217.796	111.709	-54.4607	-219.346	121.066	-78.274	-195.454	120.481	10.4316	-197.147	118.412	41.9584	-160.771	107.997	32.265	
187	1.55833	-153.105	71.4461	32.8899	-148.44	50.8842	1.17266	-150.538	45.7494	-30.3169	-167.36	48.3459	-53.7086	-140.429	112.593	-42.0985	-137.194	116.032	-63.8476	-140.352	121.059	-94.447	-164.795	95.1414	-54.2562	-176.909	62.7644	-53.8272	-176.883	62.5131	-15.7862	-187.914	96.3762	-52.5409	-193.281	64.3313	-50.0668	-194.774	59.3573	-18.0012	-216.684	118.369	-38.5891	-219.902	119.534	-55.8454	-220.679	127.684	-77.5523	-188.672	123.098	7.24899	-200.103	120.227	40.77	-163.991	113.726	28.5541	
